# xmcd
#
# Track frame offsets: 
#        150
#        13486
#        26498
#        42303
#        60398
#        78528
#        95849
#        111599
#        125579
#        141317
#        160479
#        172456
#        189925
#        204617
#        215943
#        231519
#        243481
#        258946
#        273561
#        288532
#        303904
#
# Disc length: 4234 seconds
#
# Revision: 0
# Processed by: cddbd v1.5.2PL0 Copyright (c) Steve Scherf et al.
# Submitted via: ExactAudioCopy v0.99pb4
#
DISCID=54108815
DTITLE=Various Artist - 10 Jaar Schlagerfestival 2015 - CD 3
DYEAR=2015
DGENRE=Chanson
TTITLE0=De Romeo's - Viva De Romeo's
TTITLE1=Bart Kaëll - De Marie-Louise
TTITLE2=Johan Verminnen - In De Rue Des Bouchers
TTITLE3=Joe Harris - Drink Rode Wijn
TTITLE4=Roland Kaiser - Santa Maria
TTITLE5=Nino De Angelo - Jenseits Von Eden
TTITLE6=Semino Rossi - Jij Was Het Mooiste Meisje
TTITLE7=Elke - Dat Hemels Gevoel
TTITLE8=Erik Van Neygen and Sanne - Veel Te Mooi
TTITLE9=John Terra - De Dag Dat Het Zonlicht Niet Meer Scheen
TTITLE10=Nick and Simon - Rosanne
TTITLE11=Marianne Weber - Als Sterren Stralen
TTITLE12=Patrick and Carina - De Regenboog
TTITLE13=Vanessa Chinitor - Een Koffer Vol Dromen
TTITLE14=Luc Steeno and Sandra Kim - Bel Me Schrijf Me
TTITLE15=Peter En Zijn Rockets - Kom Van Dat Dak Af
TTITLE16=Get Ready! - Diep
TTITLE17=Swoop Feat. De Deurzakkers - De Polonaisemedley
TTITLE18=Yves Segers - Café De Zwaan
TTITLE19=Laura Lynn, Luc Steeno, Lindsay, De Romeo's, Sam Gooris, The 
TTITLE19=Sunsets - Als Je Dan Even In Je Handen Klapt
TTITLE20=Dennie, Mieke, Christoff and Lindsay - Zaterdagavond
EXTD=
EXTT0=
EXTT1=
EXTT2=
EXTT3=
EXTT4=
EXTT5=
EXTT6=
EXTT7=
EXTT8=
EXTT9=
EXTT10=
EXTT11=
EXTT12=
EXTT13=
EXTT14=
EXTT15=
EXTT16=
EXTT17=
EXTT18=
EXTT19=
EXTT20=
PLAYORDER=
